<svg version="1.1" id="Layer_1" xmlns="http://www.w3.org/2000/svg" xmlns:xlink="http://www.w3.org/1999/xlink" x="0px" y="0px"
	 width="100%" viewBox="0 0 192 192" enable-background="new 0 0 192 192" xml:space="preserve">
<path fill="#000000" opacity="1.000000" stroke="none" 
	d="
M47.933826,144.584366 
	C47.862305,129.966461 47.787212,115.805618 47.768677,101.644699 
	C47.760075,95.072243 49.699451,89.318489 54.419510,84.444038 
	C58.937214,79.778557 63.234787,74.900269 68.123077,70.605431 
	C69.507355,69.389206 71.023170,68.096184 73.026535,69.072800 
	C74.765282,69.920403 74.929642,71.790268 74.955948,73.406151 
	C75.072533,80.567184 75.063263,87.730652 75.044258,94.893097 
	C75.041222,96.036270 74.910553,97.255661 73.510109,97.867546 
	C70.755013,97.835136 70.014801,94.455826 66.772484,93.873436 
	C59.049461,102.783058 63.627644,113.517479 62.241665,123.571022 
	C64.907295,123.436600 65.839928,121.911591 66.962120,120.797691 
	C80.677498,107.183464 94.343796,93.519814 108.054207,79.900581 
	C109.802139,78.164284 110.693451,76.549080 110.190002,73.778015 
	C108.367752,63.748093 113.071808,54.120235 121.495239,49.729660 
	C130.078964,45.255527 141.706146,46.934868 148.354752,53.609035 
	C155.220490,60.501175 156.893326,71.529190 152.416504,80.385719 
	C148.128143,88.869400 138.564209,93.672577 128.507812,91.989479 
	C126.044807,91.577271 124.400993,91.954308 122.721931,93.644592 
	C108.284393,108.178627 93.807625,122.673683 79.359108,137.196823 
	C78.923508,137.634674 78.668907,138.252594 77.671860,139.823120 
	C88.502617,138.511612 99.168831,142.768234 108.133957,135.362213 
	C107.826225,132.083710 104.074120,131.395432 104.675430,128.379944 
	C105.791145,127.017914 107.341118,127.082855 108.823631,127.102989 
	C115.816986,127.197983 122.814095,127.227631 129.801086,127.503143 
	C134.109756,127.673042 135.226379,129.698135 132.464035,132.754761 
	C121.564140,144.815842 110.035248,155.548462 91.824699,154.408020 
	C80.870995,153.722031 69.840569,154.315826 58.845737,154.213455 
	C50.835838,154.138885 49.298168,152.752167 47.933826,144.584366 
M139.942215,67.504150 
	C138.175491,63.643982 135.386673,61.322182 130.937057,62.055222 
	C126.715706,62.750652 123.857773,66.725418 124.426308,70.743706 
	C124.993874,74.755203 128.908813,77.935547 132.913330,77.638252 
	C137.469360,77.300018 140.190323,73.766174 139.942215,67.504150 
z"/>
</svg>