<?xml version="1.0" encoding="utf-8"?>
<svg version="1.1" xmlns="http://www.w3.org/2000/svg" width="512" height="512" xmlns:bx="https://boxy-svg.com">
  <defs>
    <linearGradient gradientUnits="userSpaceOnUse" x1="380.44" y1="80.452" x2="380.44" y2="411.818" id="gradient-0" spreadMethod="pad" gradientTransform="matrix(1.095083, 0, 0, 1.095083, -32.172241, -19.769339)">
      <stop offset="0" style="stop-color: rgb(255, 255, 255);"/>
      <stop offset="1" style="stop-color: rgb(227, 227, 227);"/>
    </linearGradient>
    <linearGradient gradientUnits="userSpaceOnUse" x1="380.44" y1="80.452" x2="380.44" y2="411.818" id="gradient-1" gradientTransform="matrix(1.095083, 0, 0, 1.095083, -32.172241, -19.769339)">
      <stop offset="0" style="stop-color: rgb(100% 100% 100%)"/>
      <stop offset="1" style="stop-color: rgb(56.687% 56.687% 56.687%)"/>
    </linearGradient>
    <linearGradient gradientUnits="userSpaceOnUse" x1="380.44" y1="80.452" x2="380.44" y2="411.818" id="gradient-2" spreadMethod="pad" gradientTransform="matrix(1, 0, 0, 1, -601.132812, -82.64022)">
      <stop offset="0" style="stop-color: rgb(84.706% 84.706% 84.706%)"/>
      <stop offset="1" style="stop-color: rgb(48.42% 48.42% 48.42%)"/>
    </linearGradient>
    <linearGradient gradientUnits="userSpaceOnUse" x1="380.44" y1="80.452" x2="380.44" y2="411.818" id="gradient-3" gradientTransform="matrix(1, 0, 0, 1, -601.132812, -82.64022)">
      <stop offset="0" style="stop-color: rgb(100% 100% 100%)"/>
      <stop offset="1" style="stop-color: rgb(56.687% 56.687% 56.687%)"/>
    </linearGradient>
    <filter id="filter-0" bx:pinned="true" primitiveUnits="objectBoundingBox">
      <feGaussianBlur result="gaussian-blur-0" in="none" stdDeviation="10 0.04"/>
      <title>bob</title>
    </filter>
    <linearGradient gradientUnits="userSpaceOnUse" x1="380.44" y1="80.452" x2="380.44" y2="411.818" id="gradient-5" gradientTransform="matrix(1.095083, 0, 0, 1.095083, -32.171692, -19.769516)">
      <stop offset="0" style="stop-color: rgb(100% 100% 100%)"/>
      <stop offset="1" style="stop-color: rgb(56.687% 56.687% 56.687%)"/>
    </linearGradient>
    <bx:export>
      <bx:file format="svg" href="#object-0"/>
      <bx:file format="svg" href="#object-1" path="Untitled 2.svg"/>
      <bx:file format="svg" href="#object-2" path="Untitled 3.svg"/>
    </bx:export>
  </defs>
  <g>
    <rect x="205.821" y="68.332" width="357.24" height="362.874" rx="10" ry="10" style="paint-order: fill; stroke-width: 2; stroke-opacity: 0.59; fill-opacity: 0.22; stroke: url(&quot;#gradient-5&quot;); fill: rgb(255, 255, 255);" id="object-0"/>
    <rect x="205.821" y="68.332" width="357.24" height="362.874" rx="10" ry="10" style="fill: url(&quot;#gradient-0&quot;); paint-order: fill; stroke-width: 2px; stroke: url(&quot;#gradient-1&quot;); stroke-opacity: 0.59; fill-opacity: 0.22;" id="object-1"/>
    <path d="M 495.315 90.255 C 495.85 90.524 496.384 90.793 496.934 91.07 C 505.1 95.524 510.516 102.647 513.172 111.521 C 514.404 116.015 514.661 120.141 514.585 124.779 C 514.581 126.01 514.577 127.241 514.573 128.472 C 514.567 129.775 514.554 131.078 514.54 132.381 C 514.512 135.112 514.507 137.843 514.506 140.575 C 514.499 148.334 514.465 156.094 514.401 163.853 C 514.366 168.154 514.352 172.455 514.359 176.756 C 514.363 179.467 514.341 182.176 514.3 184.886 C 514.276 186.971 514.29 189.056 514.298 191.141 C 514.279 191.883 514.26 192.624 514.241 193.389 C 514.297 197.461 514.817 199.565 517.741 202.495 C 518.71 203.329 519.685 204.155 520.667 204.973 C 521.887 206.309 523.008 207.702 524.114 209.133 C 524.403 209.506 524.693 209.88 524.991 210.265 C 538.62 228.181 546.656 249.842 546.804 272.404 C 546.809 273.153 546.815 273.901 546.82 274.672 C 546.829 276.251 546.835 277.83 546.84 279.409 C 546.848 281.013 546.861 282.617 546.879 284.221 C 546.907 286.554 546.917 288.887 546.923 291.22 C 546.934 291.927 546.945 292.635 546.957 293.364 C 546.932 302.516 543.425 311.132 536.988 317.672 C 526.94 327.139 515.668 327.656 502.552 327.608 C 488.657 327.595 476.797 330.412 466.16 339.973 C 465.773 340.302 465.386 340.63 464.987 340.969 C 456.569 348.618 451.348 361.142 450.315 372.297 C 450.254 372.716 450.193 373.134 450.13 373.565 C 449.929 375.839 449.946 377.409 451.175 379.382 C 452.4 380.793 453.683 382.094 455.029 383.389 C 455.726 384.093 455.726 384.093 456.438 384.811 C 457.765 386.146 459.108 387.463 460.456 388.776 C 461.526 389.845 462.596 390.914 463.665 391.985 C 464.317 392.627 464.317 392.627 464.982 393.282 C 466.129 394.449 467.198 395.653 468.26 396.897 C 470.532 399.553 473.001 401.992 475.501 404.432 C 476.97 405.876 478.334 407.321 479.621 408.932 C 480.619 410.377 480.619 410.377 482.005 410.959 C 482.005 411.378 482.005 411.796 482.005 412.227 C 464.187 412.286 446.369 412.331 428.551 412.358 C 420.277 412.371 412.003 412.389 403.729 412.418 C 396.513 412.444 389.298 412.46 382.082 412.466 C 378.265 412.469 374.448 412.477 370.631 412.495 C 367.03 412.512 363.429 412.518 359.828 412.514 C 358.514 412.514 357.201 412.519 355.887 412.529 C 337.309 412.661 321.052 407.428 307.549 394.32 C 292.673 379.444 287.343 362.404 286.16 341.875 C 285.686 342.007 285.212 342.139 284.724 342.275 C 284.1 342.448 283.476 342.621 282.833 342.798 C 282.215 342.97 281.597 343.141 280.961 343.318 C 278.673 343.91 276.473 344.263 274.118 344.41 C 273.373 344.46 273.373 344.46 272.613 344.512 C 259.5 344.96 247.853 339.996 238.117 331.442 C 228.81 322.662 222.363 310.644 221.933 297.702 C 221.726 280.918 225.191 267.246 236.842 254.648 C 247.213 244.841 259.837 240.488 273.974 240.882 C 287.553 241.575 298.199 248.345 307.536 257.874 C 312.78 263.721 312.78 263.721 312.78 266.452 C 313.198 266.452 313.616 266.452 314.047 266.452 C 314.186 266.113 314.325 265.774 314.468 265.425 C 315.612 263.388 317.134 261.769 318.722 260.075 C 319.062 259.711 319.402 259.347 319.753 258.973 C 342.039 235.416 370.309 225.202 402.146 223.354 C 401.881 223.092 401.617 222.831 401.344 222.561 C 392.541 213.855 392.541 213.855 389.302 210.014 C 387.556 208.048 385.665 206.226 383.794 204.38 C 382.142 202.742 380.558 201.08 379.052 199.309 C 377.14 197.066 375.086 195.001 372.991 192.931 C 370.534 190.504 368.198 188.038 365.96 185.405 C 364.357 183.618 362.656 181.941 360.949 180.255 C 358.49 177.826 356.15 175.361 353.915 172.721 C 352.648 171.313 351.309 169.995 349.95 168.676 C 341.34 160.29 335.724 151.429 335.399 139.177 C 335.588 129.468 338.845 120.804 345.594 113.703 C 352.747 107.29 360.977 104.471 370.463 104.657 C 381.107 105.397 388.189 111.392 395.293 118.697 C 395.959 119.37 396.625 120.043 397.292 120.715 C 400.389 123.848 403.405 127.03 406.274 130.376 C 407.677 131.978 409.179 133.45 410.702 134.938 C 412.652 136.859 414.556 138.791 416.327 140.88 C 418.347 143.251 420.532 145.426 422.745 147.614 C 425.315 150.155 427.777 152.722 430.115 155.48 C 432.021 157.608 434.073 159.589 436.106 161.596 C 438.648 164.119 441.018 166.756 443.343 169.48 C 444.623 171.028 444.623 171.028 445.879 172.016 C 446.715 172.016 447.552 172.016 448.414 172.016 C 448.407 171.073 448.407 171.073 448.401 170.111 C 448.362 164.145 448.334 158.178 448.315 152.212 C 448.305 149.146 448.292 146.08 448.27 143.014 C 448.249 140.046 448.238 137.079 448.233 134.112 C 448.23 132.988 448.223 131.865 448.213 130.741 C 448.092 117.144 449.915 105.506 459.822 95.325 C 469.121 87.127 484.071 84.138 495.315 90.255 Z" fill="#00E98A" style="stroke-width: 2px;" id="object-2"/>
  </g>
  <rect x="-383.8" y="-2.188" width="326.222" height="331.366" rx="10" ry="10" style="paint-order: fill; fill-opacity: 0.4; stroke-width: 2; stroke-opacity: 0.59; fill: url(&quot;#gradient-2&quot;); stroke: url(&quot;#gradient-3&quot;); filter: url(&quot;#filter-0&quot;);"/>
</svg>